<svg version="1.1" id="Layer_1" xmlns="http://www.w3.org/2000/svg" xmlns:xlink="http://www.w3.org/1999/xlink" x="0px" y="0px"
	 width="100%" viewBox="0 0 220 218" enable-background="new 0 0 220 218" xml:space="preserve">
<path fill="#3860DC" opacity="1.000000" stroke="none" 
	d="
M86.000000,219.000000 
	C71.645775,219.000000 57.291546,219.000000 42.330254,218.680450 
	C39.773319,217.681061 37.823444,217.001205 35.934265,215.954819 
	C36.837837,214.384460 37.523987,213.024216 38.546459,211.999588 
	C65.715454,184.773193 92.904793,157.567001 120.165413,130.432465 
	C121.344879,129.258453 123.234795,128.798203 124.881256,128.452820 
	C125.441803,134.819595 125.914841,140.738998 126.395828,146.757797 
	C132.073166,146.757797 137.319763,146.757797 143.070206,146.757797 
	C142.493179,140.063782 142.216263,133.612610 141.285172,127.257263 
	C140.721069,123.406998 139.144028,119.705147 138.024078,115.576416 
	C139.064407,113.597092 139.851883,111.728249 141.178314,110.395981 
	C164.512970,86.958466 187.900497,63.573448 211.333176,40.233902 
	C212.680496,38.891937 214.511993,38.036091 216.402191,37.079403 
	C217.131454,38.136307 217.576675,39.067810 217.995178,40.429539 
	C218.367371,50.237629 218.766266,59.615498 219.094513,69.456635 
	C218.959412,75.281807 218.894989,80.643715 218.498474,86.052200 
	C217.002396,87.007675 215.727402,87.805443 214.690445,88.841461 
	C172.760803,130.733612 130.846252,172.640884 88.973244,214.589630 
	C87.743538,215.821564 86.980576,217.519394 86.000000,219.000000 
z"/>
<path fill="#345AD8" opacity="1.000000" stroke="none" 
	d="
M86.468658,219.000000 
	C86.980576,217.519394 87.743538,215.821564 88.973244,214.589630 
	C130.846252,172.640884 172.760803,130.733612 214.690445,88.841461 
	C215.727402,87.805443 217.002396,87.007675 218.563324,86.516556 
	C218.917099,101.624367 218.873901,116.314415 218.476624,131.010284 
	C216.748352,131.844147 215.137970,132.435150 214.034592,133.534882 
	C187.186417,160.294327 160.374985,187.090775 133.641586,213.964783 
	C132.364441,215.248657 131.862793,217.303955 131.000000,219.000000 
	C116.312439,219.000000 101.624878,219.000000 86.468658,219.000000 
z"/>
<path fill="#3155D5" opacity="1.000000" stroke="none" 
	d="
M131.468628,219.000000 
	C131.862793,217.303955 132.364441,215.248657 133.641586,213.964783 
	C160.374985,187.090775 187.186417,160.294327 214.034592,133.534882 
	C215.137970,132.435150 216.748352,131.844147 218.542542,131.474579 
	C218.918427,139.622620 218.874268,147.312195 218.490005,155.048965 
	C216.501862,156.162415 214.605392,156.978760 213.243271,158.332672 
	C194.645981,176.818146 176.097824,195.353424 157.634949,213.972977 
	C156.361694,215.257034 155.860336,217.306488 155.000000,219.000000 
	C147.312424,219.000000 139.624832,219.000000 131.468628,219.000000 
z"/>
<path fill="#FBFCFD" opacity="1.000000" stroke="none" 
	d="
M218.021912,39.999313 
	C217.576675,39.067810 217.131454,38.136307 216.357941,36.691269 
	C213.670013,25.938885 207.543884,18.371515 198.960251,12.157125 
	C191.968048,7.041466 184.259430,4.637151 175.710052,3.311497 
	C167.215576,3.174282 159.108368,3.172027 150.536987,3.100938 
	C137.717056,3.078108 125.361290,3.124113 112.540970,3.100885 
	C100.719261,3.077828 89.362106,3.124004 77.540329,3.101740 
	C68.385681,3.078121 59.695652,3.122941 50.571968,3.101061 
	C46.379784,3.549517 42.506580,3.649242 38.882038,4.649782 
	C20.523590,9.717564 9.349926,22.033115 3.601306,39.999519 
	C2.486460,40.000038 1.743230,40.000019 1.000000,40.000000 
	C1.000000,27.019108 1.000000,14.038215 1.000008,1.058308 
	C74.333351,1.059295 147.666687,1.059295 221.000000,1.059295 
	C221.000000,13.766621 221.000000,26.414652 220.627731,39.531578 
	C219.510941,40.000084 218.766434,39.999699 218.021912,39.999313 
z"/>
<path fill="#2F53D4" opacity="1.000000" stroke="none" 
	d="
M155.466125,219.000000 
	C155.860336,217.306488 156.361694,215.257034 157.634949,213.972977 
	C176.097824,195.353424 194.645981,176.818146 213.243271,158.332672 
	C214.605392,156.978760 216.501862,156.162415 218.557480,155.509308 
	C218.920532,160.281769 218.876022,164.641098 218.499466,169.048462 
	C217.599823,169.419312 216.926071,169.635605 216.480026,170.080292 
	C201.596161,184.918564 186.708862,199.753723 171.922668,214.688919 
	C170.886948,215.735062 170.622879,217.545151 170.000000,219.000000 
	C165.310745,219.000000 160.621490,219.000000 155.466125,219.000000 
z"/>
<path fill="#2F52D3" opacity="1.000000" stroke="none" 
	d="
M170.449982,219.000000 
	C170.622879,217.545151 170.886948,215.735062 171.922668,214.688919 
	C186.708862,199.753723 201.596161,184.918564 216.480026,170.080292 
	C216.926071,169.635605 217.599823,169.419312 218.567291,169.491974 
	C219.159424,180.068649 215.942657,189.284851 210.722504,198.188354 
	C205.491653,205.695953 198.553696,210.691391 190.591919,214.959076 
	C186.474030,216.324539 182.737015,217.662262 179.000000,219.000000 
	C176.299988,219.000000 173.599976,219.000000 170.449982,219.000000 
z"/>
<path fill="#EFF0F1" opacity="1.000000" stroke="none" 
	d="
M211.005051,198.013901 
	C215.942657,189.284851 219.159424,180.068649 218.899338,169.443909 
	C218.876022,164.641098 218.920532,160.281769 218.897583,155.462128 
	C218.874268,147.312195 218.918427,139.622620 218.896637,131.468750 
	C218.873901,116.314415 218.917099,101.624367 218.895432,86.469971 
	C218.894989,80.643715 218.959412,75.281807 219.400299,69.458771 
	C220.184509,68.998421 220.592255,68.999207 221.000000,69.000000 
	C221.000000,111.354225 221.000000,153.708450 220.647400,196.600525 
	C216.863190,204.425568 213.431595,211.712784 210.000000,219.000000 
	C207.629440,219.000000 205.258896,219.000000 202.483261,218.646500 
	C202.982880,216.756119 204.076340,215.298080 204.757370,213.667755 
	C206.922562,208.484329 208.934113,203.236710 211.005051,198.013901 
z"/>
<path fill="#F0F0F1" opacity="1.000000" stroke="none" 
	d="
M1.000001,197.000000 
	C1.000000,154.645767 1.000000,112.291542 1.305915,69.468384 
	C2.019712,68.997284 2.427593,68.995117 2.903478,69.439514 
	C3.037868,72.592514 3.104253,75.298943 3.107298,78.469795 
	C3.085829,90.291435 3.127701,101.648659 3.106039,113.470245 
	C3.084795,128.957535 3.127086,143.980438 3.105537,159.467438 
	C3.030378,162.400375 3.063483,164.870377 2.999988,167.337891 
	C2.736434,177.579834 4.449926,187.312073 10.367179,196.304047 
	C11.016324,197.724686 11.577950,198.844330 11.856117,200.191605 
	C11.872011,202.258957 11.809185,204.259399 12.540538,205.907425 
	C14.512848,210.351883 16.823572,214.646133 19.000000,219.000000 
	C16.958334,219.000000 14.916667,219.000000 12.397144,218.644043 
	C8.910751,211.623199 5.929811,204.945480 2.846618,198.315323 
	C2.569536,197.719482 1.631229,197.431137 1.000001,197.000000 
z"/>
<path fill="#E5E6E9" opacity="1.000000" stroke="none" 
	d="
M210.722504,198.188354 
	C208.934113,203.236710 206.922562,208.484329 204.757370,213.667755 
	C204.076340,215.298080 202.982880,216.756119 202.039093,218.646500 
	C198.307098,219.000000 194.614182,219.000000 190.497284,218.650543 
	C190.373108,217.177841 190.672928,216.054596 190.972763,214.931351 
	C198.553696,210.691391 205.491653,205.695953 210.722504,198.188354 
z"/>
<path fill="#E5E6E9" opacity="1.000000" stroke="none" 
	d="
M19.460636,219.000000 
	C16.823572,214.646133 14.512848,210.351883 12.540538,205.907425 
	C11.809185,204.259399 11.872011,202.258957 12.154713,200.327820 
	C18.153559,204.866135 23.570349,209.495865 29.037437,214.458023 
	C29.725157,216.193649 30.362579,217.596817 31.000000,219.000000 
	C27.307091,219.000000 23.614182,219.000000 19.460636,219.000000 
z"/>
<path fill="#F5F5F5" opacity="1.000000" stroke="none" 
	d="
M1.000001,197.468781 
	C1.631229,197.431137 2.569536,197.719482 2.846618,198.315323 
	C5.929811,204.945480 8.910751,211.623199 11.959644,218.644043 
	C8.382699,219.000000 4.765399,219.000000 1.000000,219.000000 
	C1.000000,211.979691 1.000000,204.958618 1.000001,197.468781 
z"/>
<path fill="#F5F5F5" opacity="1.000000" stroke="none" 
	d="
M210.482956,219.000000 
	C213.431595,211.712784 216.863190,204.425568 220.647400,197.069183 
	C221.000000,204.228210 221.000000,211.456406 221.000000,219.000000 
	C217.661911,219.000000 214.313919,219.000000 210.482956,219.000000 
z"/>
<path fill="#F5F5F5" opacity="1.000000" stroke="none" 
	d="
M221.000000,68.531342 
	C220.592255,68.999207 220.184509,68.998421 219.470978,68.995499 
	C218.766266,59.615498 218.367371,50.237629 217.995193,40.429535 
	C218.766434,39.999699 219.510941,40.000084 220.627731,40.000237 
	C221.000000,49.354229 221.000000,58.708454 221.000000,68.531342 
z"/>
<path fill="#F5F5F5" opacity="1.000000" stroke="none" 
	d="
M2.835474,68.992943 
	C2.427593,68.995117 2.019712,68.997284 1.305915,68.999725 
	C1.000000,59.645771 1.000000,50.291542 1.000000,40.468658 
	C1.743230,40.000019 2.486460,40.000038 3.624349,40.421951 
	C3.735038,44.230583 3.451068,47.617317 3.103703,51.467850 
	C2.972030,57.618740 2.903752,63.305843 2.835474,68.992943 
z"/>
<path fill="#DADCE3" opacity="1.000000" stroke="none" 
	d="
M31.458069,219.000000 
	C30.362579,217.596817 29.725157,216.193649 29.401197,214.427307 
	C31.767632,214.816559 33.820602,215.568954 35.873573,216.321350 
	C37.823444,217.001205 39.773319,217.681061 41.861595,218.680450 
	C38.638714,219.000000 35.277424,219.000000 31.458069,219.000000 
z"/>
<path fill="#DADCE3" opacity="1.000000" stroke="none" 
	d="
M190.591919,214.959076 
	C190.672928,216.054596 190.373108,217.177841 190.036636,218.650543 
	C186.638718,219.000000 183.277420,219.000000 179.458069,219.000000 
	C182.737015,217.662262 186.474030,216.324539 190.591919,214.959076 
z"/>
<path fill="#3C65DE" opacity="1.000000" stroke="none" 
	d="
M35.934265,215.954834 
	C33.820602,215.568954 31.767632,214.816559 29.350899,214.094879 
	C23.570349,209.495865 18.153559,204.866135 12.438173,200.100204 
	C11.577950,198.844330 11.016324,197.724686 10.717325,196.295441 
	C12.277969,195.342377 13.861254,194.984024 14.831701,194.013123 
	C32.633785,176.202560 50.291744,158.247391 68.162308,140.506256 
	C72.055870,136.640915 76.654327,133.485580 81.007271,130.465332 
	C81.086411,136.187057 81.086411,141.446716 81.086411,146.609848 
	C87.049934,146.609848 92.261917,146.609848 97.894241,146.609848 
	C97.894241,137.304001 97.894241,128.391632 97.894241,119.016212 
	C103.935608,119.016212 109.554657,118.898743 115.166679,119.047127 
	C121.609459,119.217476 123.671417,121.247826 124.793755,128.005447 
	C123.234795,128.798203 121.344879,129.258453 120.165413,130.432465 
	C92.904793,157.567001 65.715454,184.773193 38.546459,211.999588 
	C37.523987,213.024216 36.837837,214.384460 35.934265,215.954834 
z"/>
<path fill="#FBFCFE" opacity="1.000000" stroke="none" 
	d="
M124.881256,128.452820 
	C123.671417,121.247826 121.609459,119.217476 115.166679,119.047127 
	C109.554657,118.898743 103.935608,119.016212 97.894241,119.016212 
	C97.894241,128.391632 97.894241,137.304001 97.894241,146.609848 
	C92.261917,146.609848 87.049934,146.609848 81.086411,146.609848 
	C81.086411,141.446716 81.086411,136.187057 81.092323,130.002960 
	C81.041519,114.386513 80.984795,99.694534 81.011719,84.542191 
	C81.095352,79.636505 81.095352,75.191177 81.095352,70.562004 
	C83.440521,70.330673 85.220734,70.155075 87.463226,70.063828 
	C96.283936,70.091705 104.642380,70.035217 113.422653,70.065292 
	C122.311462,70.601303 130.414612,72.085167 137.006042,78.559113 
	C146.390427,90.503967 143.745621,103.331917 130.495041,111.463676 
	C132.979202,112.939888 135.500626,114.438255 138.022049,115.936623 
	C139.144028,119.705147 140.721069,123.406998 141.285172,127.257263 
	C142.216263,133.612610 142.493179,140.063782 143.070206,146.757797 
	C137.319763,146.757797 132.073166,146.757797 126.395828,146.757797 
	C125.914841,140.738998 125.441803,134.819595 124.881256,128.452820 
M101.674294,84.078247 
	C100.384392,84.872711 98.022789,85.609825 97.976715,86.470863 
	C97.652336,92.531631 97.804588,98.617897 97.804588,104.870522 
	C104.241051,104.870522 110.045631,105.193283 115.797737,104.782013 
	C121.851418,104.349174 125.115295,100.747208 125.374062,95.272926 
	C125.660286,89.217674 123.004532,85.736069 116.524467,84.791977 
	C111.955521,84.126320 107.266304,84.286163 101.674294,84.078247 
z"/>
<path fill="#3C65DE" opacity="1.000000" stroke="none" 
	d="
M138.024078,115.576416 
	C135.500626,114.438255 132.979202,112.939888 130.495041,111.463676 
	C143.745621,103.331917 146.390427,90.503967 137.151611,78.231995 
	C138.572800,75.766396 139.804413,73.758095 141.421387,72.133308 
	C159.390366,54.077469 177.442963,36.104790 195.389374,18.026665 
	C196.951645,16.452927 197.920929,14.290497 199.165649,12.401518 
	C207.543884,18.371515 213.670013,25.938885 216.073914,36.565872 
	C214.511993,38.036091 212.680496,38.891937 211.333176,40.233902 
	C187.900497,63.573448 164.512970,86.958466 141.178314,110.395981 
	C139.851883,111.728249 139.064407,113.597092 138.024078,115.576416 
z"/>
<path fill="#4370E4" opacity="1.000000" stroke="none" 
	d="
M87.000946,69.979477 
	C85.220734,70.155075 83.440521,70.330673 81.095352,70.562004 
	C81.095352,75.191177 81.095352,79.636505 80.652161,84.547745 
	C78.471138,86.177330 76.487183,87.093704 75.032318,88.541687 
	C52.616993,110.851067 30.282028,133.241180 7.879632,155.563599 
	C6.518497,156.919876 4.748909,157.866241 3.169376,159.003342 
	C3.127086,143.980438 3.084795,128.957535 3.459016,113.461288 
	C5.367713,112.041237 7.096301,111.331520 8.317636,110.113266 
	C42.341225,76.175621 76.326187,42.199169 110.244919,8.156785 
	C111.534454,6.862553 112.101700,4.848660 113.005524,3.170117 
	C125.361290,3.124113 137.717056,3.078108 150.489120,3.432215 
	C149.643829,5.348010 148.491196,6.972376 147.104172,8.362974 
	C128.190292,27.325722 109.228859,46.241089 90.337570,65.226265 
	C88.992027,66.578491 88.102509,68.384476 87.000946,69.979477 
z"/>
<path fill="#4675E7" opacity="1.000000" stroke="none" 
	d="
M112.540970,3.100885 
	C112.101700,4.848660 111.534454,6.862553 110.244919,8.156785 
	C76.326187,42.199169 42.341225,76.175621 8.317636,110.113266 
	C7.096301,111.331520 5.367713,112.041237 3.522551,112.996918 
	C3.127701,101.648659 3.085829,90.291435 3.461443,78.460838 
	C5.603600,76.806366 7.557826,75.855507 9.013228,74.404366 
	C15.330424,68.105659 21.443306,61.602455 27.738245,55.280918 
	C43.712898,39.238777 59.762737,23.271461 75.715446,7.207629 
	C76.767281,6.148477 77.254890,4.529019 78.004944,3.170179 
	C89.362106,3.124004 100.719261,3.077828 112.540970,3.100885 
z"/>
<path fill="#3F6AE0" opacity="1.000000" stroke="none" 
	d="
M198.960251,12.157125 
	C197.920929,14.290497 196.951645,16.452927 195.389374,18.026665 
	C177.442963,36.104790 159.390366,54.077469 141.421387,72.133308 
	C139.804413,73.758095 138.572800,75.766396 137.016647,77.923706 
	C130.414612,72.085167 122.311462,70.601303 113.462555,69.723427 
	C114.314697,67.769081 115.423630,66.118416 116.801735,64.736115 
	C135.315125,46.166340 153.889511,27.657270 172.365128,9.050114 
	C173.916672,7.487538 174.867432,5.328419 176.097321,3.446455 
	C184.259430,4.637151 191.968048,7.041466 198.960251,12.157125 
z"/>
<path fill="#4979E9" opacity="1.000000" stroke="none" 
	d="
M77.540329,3.101740 
	C77.254890,4.529019 76.767281,6.148477 75.715446,7.207629 
	C59.762737,23.271461 43.712898,39.238777 27.738245,55.280918 
	C21.443306,61.602455 15.330424,68.105659 9.013228,74.404366 
	C7.557826,75.855507 5.603600,76.806366 3.524784,77.996414 
	C3.104253,75.298943 3.037868,72.592514 2.903478,69.439514 
	C2.903752,63.305843 2.972030,57.618740 3.434774,51.419109 
	C4.755605,50.234562 5.783858,49.666714 6.593203,48.875061 
	C21.064795,34.719746 35.525291,20.552906 49.914368,6.313958 
	C50.622490,5.613227 50.657288,4.232076 51.005619,3.167761 
	C59.695652,3.122941 68.385681,3.078121 77.540329,3.101740 
z"/>
<path fill="#416DE2" opacity="1.000000" stroke="none" 
	d="
M175.710052,3.311495 
	C174.867432,5.328419 173.916672,7.487538 172.365128,9.050114 
	C153.889511,27.657270 135.315125,46.166340 116.801735,64.736115 
	C115.423630,66.118416 114.314697,67.769081 113.040726,69.636871 
	C104.642380,70.035217 96.283936,70.091705 87.463226,70.063835 
	C88.102509,68.384476 88.992027,66.578491 90.337570,65.226265 
	C109.228859,46.241089 128.190292,27.325722 147.104172,8.362974 
	C148.491196,6.972376 149.643829,5.348010 150.953308,3.501049 
	C159.108368,3.172027 167.215576,3.174282 175.710052,3.311495 
z"/>
<path fill="#4D7DEB" opacity="1.000000" stroke="none" 
	d="
M50.571968,3.101061 
	C50.657288,4.232076 50.622490,5.613227 49.914368,6.313958 
	C35.525291,20.552906 21.064795,34.719746 6.593203,48.875061 
	C5.783858,49.666714 4.755605,50.234562 3.498169,50.955315 
	C3.451068,47.617317 3.735038,44.230583 3.995964,40.421410 
	C9.349926,22.033115 20.523590,9.717564 38.882038,4.649782 
	C42.506580,3.649242 46.379784,3.549517 50.571968,3.101061 
z"/>
<path fill="#3F6BE1" opacity="1.000000" stroke="none" 
	d="
M3.105535,159.467438 
	C4.748909,157.866241 6.518497,156.919876 7.879632,155.563599 
	C30.282028,133.241180 52.616993,110.851067 75.032318,88.541687 
	C76.487183,87.093704 78.471138,86.177330 80.568527,85.008110 
	C80.984795,99.694534 81.041519,114.386513 81.013184,129.540863 
	C76.654327,133.485580 72.055870,136.640915 68.162308,140.506256 
	C50.291744,158.247391 32.633785,176.202560 14.831701,194.013123 
	C13.861254,194.984024 12.277969,195.342377 10.629807,195.994476 
	C4.449926,187.312073 2.736434,177.579834 2.999988,167.337891 
	C3.063483,164.870377 3.030378,162.400375 3.105535,159.467438 
z"/>
<path fill="#406BE0" opacity="1.000000" stroke="none" 
	d="
M102.152542,84.077850 
	C107.266304,84.286163 111.955521,84.126320 116.524467,84.791977 
	C123.004532,85.736069 125.660286,89.217674 125.374062,95.272926 
	C125.115295,100.747208 121.851418,104.349174 115.797737,104.782013 
	C110.045631,105.193283 104.241051,104.870522 97.804588,104.870522 
	C97.804588,98.617897 97.652336,92.531631 97.976715,86.470863 
	C98.022789,85.609825 100.384392,84.872711 102.152542,84.077850 
z"/>
</svg>